<?xml version="1.0" encoding="UTF-8" standalone="no"?>
<!DOCTYPE svg PUBLIC "-//W3C//DTD SVG 1.1//EN" "http://www.w3.org/Graphics/SVG/1.1/DTD/svg11.dtd">
<svg width="100%" height="100%" viewBox="0 0 62 62" version="1.1" xmlns="http://www.w3.org/2000/svg" xmlns:xlink="http://www.w3.org/1999/xlink" xml:space="preserve" xmlns:serif="http://www.serif.com/" style="fill-rule:evenodd;clip-rule:evenodd;stroke-linecap:square;stroke-miterlimit:2;">
    <g transform="matrix(7.3492,0,0,7.3492,-5038.43,-6411.7)">
        <circle cx="689.728" cy="876.587" r="4" style="fill:rgb(0,150,219);stroke:white;stroke-opacity:0.329412;stroke-width:0.14px;"/>
    </g>
    <g transform="matrix(0.295636,0,0,0.295636,23.1713,16.738)">
        <path d="M5.602,92.04C4.961,92.68 4.16,93.001 3.281,93.001C2.398,93.001 1.602,92.68 0.96,92.04C-0.32,90.759 -0.32,88.68 0.96,87.399L41.762,46.598L0.96,5.802C-0.32,4.52 -0.32,2.438 0.96,1.161C2.238,-0.12 4.32,-0.12 5.602,1.161L48.719,44.278C50,45.559 50,47.641 48.719,48.919L5.602,92.04Z" style="fill:white;fill-rule:nonzero;"/>
    </g>
</svg>
