<?xml version="1.0" encoding="UTF-8" standalone="no"?>
<!DOCTYPE svg PUBLIC "-//W3C//DTD SVG 1.1//EN" "http://www.w3.org/Graphics/SVG/1.1/DTD/svg11.dtd">
<svg width="100%" height="100%" viewBox="0 0 18 19" version="1.1" xmlns="http://www.w3.org/2000/svg" xmlns:xlink="http://www.w3.org/1999/xlink" xml:space="preserve" xmlns:serif="http://www.serif.com/" style="fill-rule:evenodd;clip-rule:evenodd;stroke-linejoin:round;stroke-miterlimit:1.41421;">
    <g>
        <path d="M11.281,9.519C11.121,9.359 11.121,9.121 11.281,8.96L17.281,2.96C17.441,2.8 17.52,2.558 17.52,2.402C17.52,2.242 17.441,2 17.281,1.839L16.16,0.718C16,0.558 15.762,0.48 15.602,0.48C15.359,0.48 15.199,0.558 15.039,0.718L9.039,6.718C8.879,6.878 8.641,6.878 8.48,6.718L2.48,0.718C2.32,0.558 2.078,0.48 1.921,0.48C1.762,0.48 1.52,0.558 1.359,0.718L0.238,1.839C0.078,2 0,2.242 0,2.402C0,2.558 0.078,2.8 0.238,2.96L6.238,8.96C6.398,9.121 6.398,9.359 6.238,9.519L0.238,15.519C0.078,15.679 0,15.921 0,16.082C0,16.242 0.078,16.48 0.238,16.64L1.359,17.761C1.52,17.921 1.762,18 1.921,18C2.078,18 2.32,17.921 2.48,17.761L8.48,11.761C8.641,11.601 8.879,11.601 9.039,11.761L15.039,17.761C15.199,17.921 15.441,18 15.602,18C15.762,18 16,17.921 16.16,17.761L17.281,16.64C17.441,16.48 17.52,16.242 17.52,16.082C17.52,15.921 17.441,15.679 17.281,15.519L11.281,9.519Z" style="fill:white;fill-rule:nonzero;"/>
    </g>
</svg>
