<?xml version="1.0" encoding="UTF-8" standalone="no"?><!DOCTYPE svg PUBLIC "-//W3C//DTD SVG 1.1//EN" "http://www.w3.org/Graphics/SVG/1.1/DTD/svg11.dtd"><svg width="100%" height="100%" viewBox="0 0 10 6" version="1.1" xmlns="http://www.w3.org/2000/svg" xmlns:xlink="http://www.w3.org/1999/xlink" xml:space="preserve" xmlns:serif="http://www.serif.com/" style="fill-rule:evenodd;clip-rule:evenodd;stroke-linejoin:round;stroke-miterlimit:1.41421;"><path d="M9.129,1.174c0.095,-0.096 0.148,-0.223 0.148,-0.359c0,-0.136 -0.053,-0.263 -0.148,-0.359l-0.304,-0.304c-0.198,-0.198 -0.52,-0.198 -0.718,0l-3.467,3.467l-3.47,-3.471c-0.096,-0.095 -0.223,-0.148 -0.359,-0.148c-0.136,0 -0.263,0.053 -0.359,0.148l-0.304,0.304c-0.095,0.096 -0.148,0.223 -0.148,0.359c0,0.136 0.053,0.263 0.148,0.359l4.132,4.132c0.096,0.096 0.224,0.148 0.36,0.148c0.137,0 0.265,-0.052 0.36,-0.148l4.129,-4.128Z" style="fill:#fff;fill-rule:nonzero;"/></svg>