<?xml version="1.0" encoding="UTF-8" standalone="no"?>
<!DOCTYPE svg PUBLIC "-//W3C//DTD SVG 1.1//EN" "http://www.w3.org/Graphics/SVG/1.1/DTD/svg11.dtd">
<svg width="100%" height="100%" viewBox="0 0 50 50" version="1.1" xmlns="http://www.w3.org/2000/svg" xmlns:xlink="http://www.w3.org/1999/xlink" xml:space="preserve" xmlns:serif="http://www.serif.com/" style="fill-rule:evenodd;clip-rule:evenodd;stroke-linejoin:round;stroke-miterlimit:1.41421;">
    <g transform="matrix(0.211977,0,0,0.211977,0,-0.0267106)">
        <clipPath id="_clip1">
            <rect x="0" y="0.126" width="236" height="236"/>
        </clipPath>
        <g clip-path="url(#_clip1)">
            <path d="M159.703,140.517C159.195,138.935 159.758,137.212 161.094,136.228L191.031,114.267C195.801,110.767 197.699,104.876 195.871,99.255C194.047,93.634 189.047,89.982 183.133,89.955L146.004,89.783C144.344,89.775 142.879,88.712 142.359,87.134L130.718,51.872C128.867,46.259 123.852,42.634 117.941,42.634C112.027,42.634 107.012,46.259 105.16,51.872L99.914,67.759C99.082,70.279 100.449,72.994 102.965,73.822C105.484,74.654 108.199,73.287 109.031,70.771L114.273,54.884C115.086,52.423 117.285,52.232 117.941,52.232C118.594,52.232 120.793,52.423 121.605,54.884L133.242,90.146C135.059,95.646 140.168,99.357 145.961,99.384L183.09,99.556C185.68,99.568 186.539,101.599 186.742,102.224C186.945,102.845 187.441,104.994 185.355,106.525L155.414,128.49C150.746,131.915 148.793,137.923 150.559,143.439L161.871,178.818C162.66,181.287 160.996,182.732 160.465,183.115C159.938,183.501 158.047,184.638 155.945,183.126L125.801,161.435C121.102,158.052 114.781,158.052 110.078,161.435L79.934,183.13C77.832,184.642 75.938,183.505 75.41,183.122C74.879,182.736 73.215,181.29 74.004,178.826L85.312,143.439C87.078,137.923 85.125,131.915 80.457,128.49L50.52,106.525C48.434,104.994 48.93,102.845 49.133,102.224C49.336,101.599 50.195,99.568 52.785,99.556L89.918,99.384C92.566,99.372 94.707,97.212 94.695,94.564C94.68,91.919 92.535,89.787 89.895,89.787L89.871,89.787L52.738,89.958C46.828,89.986 41.828,93.634 40,99.255C38.176,104.88 40.074,110.771 44.84,114.267L74.777,136.232C76.113,137.216 76.676,138.935 76.168,140.517L64.859,175.9C63.059,181.533 64.988,187.415 69.77,190.888C72.168,192.63 74.922,193.505 77.676,193.505C80.414,193.505 83.148,192.646 85.539,190.923L115.688,169.228C117.035,168.259 118.848,168.259 120.195,169.228L150.336,190.919C155.137,194.372 161.324,194.361 166.109,190.884C170.891,187.412 172.82,181.529 171.02,175.896L159.703,140.517Z" style="fill:rgb(34,148,210);fill-rule:nonzero;"/>
            <path d="M117.938,0.126C52.906,0.126 0,53.033 0,118.064C0,183.095 52.906,236.001 117.938,236.001C120.586,236.001 122.738,233.849 122.738,231.201C122.738,228.548 120.586,226.4 117.938,226.4C58.199,226.4 9.602,177.802 9.602,118.064C9.602,58.326 58.199,9.728 117.938,9.728C177.672,9.728 226.273,58.326 226.273,118.064C226.273,155.247 207.539,189.408 176.152,209.447C173.918,210.872 173.266,213.841 174.691,216.076C176.117,218.31 179.086,218.962 181.32,217.537C215.48,195.728 235.875,158.54 235.875,118.064C235.875,53.033 182.969,0.126 117.938,0.126Z" style="fill:rgb(34,148,210);fill-rule:nonzero;"/>
        </g>
    </g>
</svg>
