<?xml version="1.0" encoding="UTF-8" standalone="no"?>
<!DOCTYPE svg PUBLIC "-//W3C//DTD SVG 1.1//EN" "http://www.w3.org/Graphics/SVG/1.1/DTD/svg11.dtd">
<svg width="100%" height="100%" viewBox="0 0 15 27" version="1.1" xmlns="http://www.w3.org/2000/svg" xmlns:xlink="http://www.w3.org/1999/xlink" xml:space="preserve" xmlns:serif="http://www.serif.com/" style="fill-rule:evenodd;clip-rule:evenodd;stroke-linejoin:round;stroke-miterlimit:1.41421;">
    <g transform="matrix(0.341006,0,0,0.341006,0,-0.0347817)">
        <path d="M40.012,0.117L30.039,0.102C18.836,0.102 11.594,7.531 11.594,19.027L11.594,27.754L1.566,27.754C0.703,27.754 0,28.453 0,29.32L0,41.965C0,42.828 0.703,43.531 1.566,43.531L11.594,43.531L11.594,75.434C11.594,76.297 12.297,77 13.164,77L26.242,77C27.109,77 27.812,76.297 27.812,75.434L27.812,43.531L39.535,43.531C40.402,43.531 41.102,42.828 41.102,41.965L41.109,29.32C41.109,28.906 40.941,28.508 40.648,28.211C40.355,27.918 39.957,27.754 39.539,27.754L27.812,27.754L27.812,20.356C27.812,16.801 28.66,14.996 33.289,14.996L40.008,14.992C40.875,14.992 41.574,14.289 41.574,13.426L41.574,1.688C41.574,0.82 40.875,0.121 40.012,0.117Z" style="fill:white;fill-rule:nonzero;"/>
    </g>
</svg>
