<?xml version="1.0" encoding="UTF-8" standalone="no"?>
<!DOCTYPE svg PUBLIC "-//W3C//DTD SVG 1.1//EN" "http://www.w3.org/Graphics/SVG/1.1/DTD/svg11.dtd">
<svg width="100%" height="100%" viewBox="0 0 209 176" version="1.1" xmlns="http://www.w3.org/2000/svg" xmlns:xlink="http://www.w3.org/1999/xlink" xml:space="preserve" xmlns:serif="http://www.serif.com/" style="fill-rule:evenodd;clip-rule:evenodd;stroke-linejoin:round;stroke-miterlimit:1.41421;">
    <g transform="matrix(0.406901,0,0,0.406901,0,-0.402828)">
        <path d="M110.903,259.325C110.903,256.694 109.833,254.113 107.972,252.253C106.111,250.392 103.54,249.32 100.898,249.32C98.267,249.32 95.685,250.391 93.824,252.253C91.963,254.113 90.893,256.694 90.893,259.325C90.893,261.967 91.963,264.538 93.824,266.409C95.685,268.269 98.267,269.33 100.898,269.33C103.53,269.33 106.111,268.27 107.972,266.409C109.833,264.538 110.903,261.967 110.903,259.325Z" style="fill:rgb(34,148,210);fill-rule:nonzero;"/>
        <path d="M195.243,249.32C192.612,249.32 190.031,250.391 188.17,252.253C186.309,254.113 185.238,256.694 185.238,259.325C185.238,261.967 186.309,264.538 188.17,266.409C190.031,268.269 192.612,269.33 195.243,269.33C197.875,269.33 200.456,268.27 202.317,266.409C204.178,264.538 205.248,261.956 205.248,259.325C205.248,256.694 204.178,254.113 202.317,252.253C200.457,250.392 197.876,249.32 195.243,249.32Z" style="fill:rgb(34,148,210);fill-rule:nonzero;"/>
        <path d="M183.966,307.189C178.628,305.76 173.145,308.935 171.718,314.273C168.858,324.975 159.136,332.451 148.072,332.451C137.009,332.451 127.286,324.975 124.427,314.273C123.001,308.934 117.517,305.758 112.179,307.189C106.841,308.616 103.67,314.099 105.095,319.437C110.289,338.881 127.962,352.461 148.073,352.461C168.183,352.461 185.857,338.881 191.05,319.437C192.475,314.1 189.303,308.616 183.966,307.189Z" style="fill:rgb(34,148,210);fill-rule:nonzero;"/>
        <path d="M256.121,84.514C261.647,84.514 266.126,80.035 266.126,74.509L266.126,10.995C266.126,5.47 261.647,0.99 256.121,0.99C250.595,0.99 246.116,5.47 246.116,10.995L246.116,74.509C246.116,80.035 250.595,84.514 256.121,84.514Z" style="fill:rgb(34,148,210);fill-rule:nonzero;"/>
        <path d="M256.124,99.859C253.483,99.859 250.911,100.919 249.041,102.79C247.18,104.651 246.119,107.232 246.119,109.863C246.119,112.494 247.18,115.076 249.041,116.937C250.911,118.798 253.483,119.868 256.124,119.868C258.755,119.868 261.337,118.798 263.198,116.937C265.058,115.076 266.129,112.494 266.129,109.863C266.129,107.232 265.058,104.651 263.198,102.79C261.336,100.919 258.754,99.859 256.124,99.859Z" style="fill:rgb(34,148,210);fill-rule:nonzero;"/>
        <path d="M181.009,106.1C182.962,108.052 185.522,109.028 188.081,109.028C190.643,109.028 193.205,108.049 195.158,106.094C199.063,102.185 199.061,95.852 195.152,91.946L169.61,66.425C165.702,62.52 159.366,62.522 155.461,66.431C151.556,70.34 151.558,76.674 155.467,80.58L181.009,106.1Z" style="fill:rgb(34,148,210);fill-rule:nonzero;"/>
        <path d="M322.573,110.711C325.136,110.711 327.697,109.732 329.651,107.777L356.806,80.6C360.712,76.691 360.709,70.356 356.801,66.451C352.892,62.545 346.557,62.548 342.652,66.456L315.497,93.634C311.591,97.543 311.594,103.877 315.502,107.782C317.455,109.735 320.014,110.711 322.573,110.711Z" style="fill:rgb(34,148,210);fill-rule:nonzero;"/>
        <path d="M397.056,408.559C328.849,426.83 258.488,386.212 240.212,318.005C231.359,284.964 235.902,250.452 253.006,220.828C256.161,215.363 259.677,210.186 263.516,205.32C263.682,205.129 263.836,204.931 263.986,204.729C280.916,183.526 304.067,168.315 330.766,161.16C341.827,158.197 352.938,156.782 363.882,156.782C420.417,156.782 472.297,194.567 487.609,251.713C505.886,319.922 465.263,390.282 397.056,408.559ZM148.072,412.99C77.457,412.99 20.009,355.541 20.009,284.928C20.009,214.313 77.457,156.865 148.072,156.865C184.627,156.865 218.863,172.185 243.161,199.147C240.506,202.901 238.004,206.791 235.677,210.822C215.901,245.075 210.648,284.98 220.885,323.182C225.582,340.715 233.256,356.67 243.217,370.651C218.914,397.649 184.64,412.99 148.072,412.99ZM506.938,246.535C485.805,167.668 404.451,120.698 325.587,141.833C298.519,149.085 274.606,163.506 255.928,183.476C227.982,153.713 189.306,136.855 148.072,136.855C66.425,136.855 0,203.281 0,284.928C0,366.575 66.425,433 148.072,433C189.345,433 228.083,416.091 256.039,386.255C283.721,415.606 322.76,432.949 363.945,432.949C376.594,432.949 389.45,431.312 402.234,427.886C481.1,406.754 528.07,325.399 506.938,246.535Z" style="fill:rgb(34,148,210);fill-rule:nonzero;"/>
        <path d="M334.605,265.244C331.509,253.686 319.591,246.8 308.028,249.899C296.471,252.996 289.587,264.918 292.685,276.476C293.882,280.946 297.924,283.894 302.343,283.894C303.199,283.894 304.071,283.783 304.938,283.55C310.275,282.119 313.443,276.635 312.012,271.297C311.771,270.397 312.308,269.467 313.207,269.226C313.765,269.078 314.213,269.236 314.49,269.395C314.766,269.555 315.128,269.863 315.278,270.422C316.708,275.758 322.192,278.928 327.531,277.496C332.869,276.067 336.035,270.582 334.605,265.244Z" style="fill:rgb(34,148,210);fill-rule:nonzero;"/>
        <path d="M415.058,227.801C410.037,224.903 404.189,224.133 398.592,225.634C392.993,227.133 388.313,230.724 385.415,235.744C382.517,240.764 381.746,246.611 383.247,252.211C384.445,256.681 388.487,259.628 392.905,259.628C393.761,259.627 394.634,259.518 395.501,259.284C400.838,257.853 404.005,252.368 402.576,247.03C402.427,246.472 402.585,246.025 402.745,245.749C402.905,245.472 403.212,245.11 403.771,244.961C404.329,244.812 404.778,244.971 405.054,245.13C405.33,245.289 405.691,245.597 405.841,246.156C407.271,251.492 412.756,254.661 418.094,253.23C423.432,251.8 426.599,246.315 425.169,240.977C423.668,235.378 420.078,230.699 415.058,227.801Z" style="fill:rgb(34,148,210);fill-rule:nonzero;"/>
        <path d="M404.15,296.68C398.813,298.111 395.646,303.596 397.076,308.933C400.48,321.639 392.913,334.745 380.208,338.15C374.052,339.799 367.623,338.952 362.107,335.766C356.588,332.58 352.641,327.436 350.992,321.281C349.562,315.945 344.076,312.773 338.738,314.207C333.402,315.638 330.234,321.123 331.664,326.46C334.696,337.778 341.955,347.237 352.102,353.095C358.86,356.997 366.362,358.991 373.963,358.991C377.773,358.991 381.608,358.491 385.387,357.477C408.75,351.217 422.663,327.116 416.404,303.755C414.974,298.418 409.487,295.249 404.15,296.68Z" style="fill:rgb(34,148,210);fill-rule:nonzero;"/>
    </g>
</svg>
