<?xml version="1.0" encoding="UTF-8" standalone="no"?>
<!DOCTYPE svg PUBLIC "-//W3C//DTD SVG 1.1//EN" "http://www.w3.org/Graphics/SVG/1.1/DTD/svg11.dtd">
<svg width="100%" height="100%" viewBox="0 0 46 51" version="1.1" xmlns="http://www.w3.org/2000/svg" xmlns:xlink="http://www.w3.org/1999/xlink" xml:space="preserve" xmlns:serif="http://www.serif.com/" style="fill-rule:evenodd;clip-rule:evenodd;stroke-linejoin:round;stroke-miterlimit:2;">
    <g transform="matrix(0.0988347,0,0,0.0988347,-2.26196,-0.175213)">
        <path d="M233.434,130.711C235.188,128.504 238.215,127.707 240.246,125.75C245.203,120.968 241.578,112.082 235.719,108.457C229.863,104.832 222.621,104.258 216.324,101.453C210.031,98.652 204.344,91.691 207.004,85.347C210.91,76.941 217.207,77.91 219.145,71.808C221.078,65.703 214.402,59.375 219.176,49.769C223.949,40.164 236.645,30.738 232.316,20.691C228.656,13.562 218.832,12.465 210.942,13.937C203.051,15.41 194.969,18.504 187.238,16.332C180.684,14.488 175.75,9.191 169.793,5.898C153.004,-3.387 114.836,-2.117 114.836,12.609C114.836,33.82 124.528,36.828 126.672,42.738C132.039,57.508 137.387,74.027 131.196,88.472C128.571,94.605 124.071,99.719 119.649,104.719L84.645,144.281C83.907,145.117 82.766,145.465 81.684,145.199C69.895,142.312 56.262,150.976 54.379,163.062C52.2,177.019 55.598,184.98 51.352,193.988C47.106,203 25,215.578 25,224.293C25,253.539 82.235,261.753 85.93,275.593C89.172,294.562 92.418,313.531 95.664,332.499C102.543,372.706 100.176,361.976 152.348,502.21C156.34,512.936 162.031,515.358 170.117,506.925C189.36,486.854 209.469,465.144 214.52,437.835C216.965,424.601 215.645,410.905 217.863,397.632C220.078,384.355 227.152,370.499 239.906,366.109C245.363,364.234 251.512,364.21 256.414,361.179C261.129,358.261 263.844,353.089 266.707,348.347C278.453,328.925 296.301,313.234 317.098,304.058C320.746,302.449 324.703,300.863 326.945,297.57C329.273,294.152 329.203,289.683 330.558,285.777C333.941,276.054 347.609,272.121 355.996,277.695C357.222,278.511 358.855,278.363 359.871,277.296C363.965,273.003 367.386,268.074 369.976,262.746C370.508,261.652 370.383,260.335 369.582,259.417C356.668,244.624 354.078,224.043 358.117,220.687C364.293,215.554 393.117,216.582 390.027,223.769C384.039,237.703 407.922,237.531 407.527,258.675C407.375,266.742 419.941,286.706 431.234,278.339C442.527,269.972 441.355,239.496 450.949,221.722C467.109,191.793 473.015,178.39 485.289,170.07C489.765,167.035 485.148,122.195 475.16,120.105C465.171,118.015 402.379,143.683 399.289,146.761C396.203,149.843 396.222,161.215 393.64,162.715C391.054,164.218 373.492,167.757 368.375,165.988C363.261,164.215 355.797,148.144 344.605,151.047C333.41,153.949 337.527,172.429 333.41,174.484C329.293,176.535 303.203,176.949 288.84,168.246C285.25,166.07 281.707,163.558 277.586,162.726C273.543,161.91 269.375,162.797 265.254,162.886C254.41,163.129 222.082,145.008 233.434,130.711Z" style="fill:rgb(88,199,72);fill-rule:nonzero;"/>
    </g>
    <g transform="matrix(0.0988347,0,0,0.0988347,-2.26196,-0.175213)">
        <path d="M358.113,220.683C358.129,220.671 358.148,220.66 358.164,220.648C353.054,216.41 332.308,216.421 327.176,220.683C323.012,224.148 325.902,245.968 339.926,260.828C336.883,267.734 332.457,274.031 326.988,279.242C318.957,271.519 303.277,275.265 299.621,285.777C298.266,289.683 298.332,294.148 296.004,297.57C293.766,300.863 289.809,302.449 286.16,304.058C265.363,313.234 247.512,328.925 235.77,348.347C232.906,353.089 230.191,358.257 225.477,361.175C220.574,364.21 214.422,364.23 208.969,366.109C196.215,370.495 189.141,384.355 186.926,397.632C184.707,410.905 186.027,424.597 183.582,437.831C179.469,460.077 165.363,478.604 149.875,495.561C150.684,497.737 151.508,499.952 152.348,502.206C156.34,512.936 162.031,515.358 170.117,506.925C189.36,486.854 209.469,465.144 214.52,437.831C216.965,424.597 215.645,410.905 217.863,397.632C220.078,384.355 227.152,370.499 239.906,366.109C245.363,364.23 251.512,364.21 256.414,361.175C261.129,358.257 263.844,353.089 266.707,348.347C278.453,328.925 296.301,313.234 317.098,304.058C320.746,302.449 324.703,300.863 326.945,297.57C329.273,294.148 329.203,289.683 330.558,285.777C333.941,276.054 347.609,272.121 355.996,277.695C357.222,278.511 358.855,278.363 359.871,277.296C363.965,272.999 367.386,268.074 369.976,262.746C370.508,261.652 370.383,260.331 369.582,259.417C356.664,244.621 354.078,224.039 358.113,220.683Z" style="fill:rgb(81,184,66);fill-rule:nonzero;"/>
    </g>
    <g transform="matrix(0.0988347,0,0,0.0988347,-2.26196,-0.175213)">
        <path d="M485.289,170.074C477.554,175.304 472.355,182.57 465.507,194.703L50.989,194.703C51.114,194.468 51.235,194.23 51.348,193.992C55.598,184.98 52.196,177.015 54.383,163.058C56.262,150.972 69.891,142.308 81.688,145.195C82.77,145.461 83.911,145.113 84.649,144.277C96.317,131.093 107.981,117.906 119.649,104.719C124.074,99.722 128.571,94.601 131.199,88.472C137.387,74.031 132.043,57.508 126.672,42.742C124.528,36.828 114.832,33.82 114.832,12.609C114.832,-2.109 153,-3.391 169.797,5.902C175.75,9.191 180.688,14.496 187.238,16.328C194.969,18.504 203.055,15.41 210.945,13.937C218.832,12.465 228.66,13.566 232.324,20.695C236.645,30.742 223.949,40.168 219.176,49.769C214.399,59.383 221.082,65.707 219.145,71.816C217.203,77.914 210.914,76.945 207.004,85.351C204.344,91.687 210.027,98.652 216.328,101.453C222.621,104.258 229.859,104.832 235.727,108.457C241.582,112.086 245.203,120.976 240.242,125.746C238.211,127.715 235.191,128.508 233.438,130.711C222.082,145.008 254.414,163.129 265.25,162.882C269.375,162.789 273.543,161.902 277.586,162.726C281.711,163.562 285.246,166.066 288.848,168.25C303.203,176.945 329.293,176.531 333.406,174.484C337.531,172.433 333.406,153.953 344.605,151.047C355.793,148.14 363.261,164.211 368.375,165.984C373.492,167.757 391.05,164.211 393.64,162.718C396.218,161.215 396.199,149.84 399.293,146.761C402.375,143.679 465.168,118.008 475.16,120.097C485.144,122.191 489.765,167.035 485.289,170.074Z" style="fill:rgb(255,179,0);fill-rule:nonzero;"/>
    </g>
    <g transform="matrix(0.0988347,0,0,0.0988347,-2.26196,-0.175213)">
        <path d="M201.387,20.695C205.707,30.738 193.012,40.164 188.238,49.769C183.461,59.379 190.145,65.703 188.207,71.812C186.266,77.914 179.977,76.945 176.07,85.351C173.406,91.687 179.09,98.652 185.391,101.453C191.684,104.254 198.922,104.832 204.789,108.457C210.649,112.082 214.266,120.976 209.305,125.742C207.274,127.711 204.254,128.504 202.5,130.707C191.149,145.008 223.477,163.129 234.316,162.882C238.441,162.789 242.605,161.902 246.648,162.726C250.773,163.562 254.309,166.066 257.91,168.25C272.266,176.945 298.355,176.531 302.469,174.48C302.805,174.316 303.082,174.027 303.32,173.66C298.062,172.488 292.969,170.746 288.848,168.25C285.246,166.066 281.711,163.562 277.586,162.726C273.543,161.902 269.375,162.789 265.25,162.882C254.414,163.129 222.082,145.008 233.438,130.707C235.191,128.504 238.211,127.711 240.242,125.742C245.203,120.972 241.586,112.082 235.727,108.457C229.859,104.832 222.621,104.254 216.328,101.453C210.027,98.652 204.344,91.687 207.004,85.351C210.914,76.945 217.203,77.914 219.145,71.812C221.082,65.703 214.399,59.379 219.176,49.769C223.949,40.168 236.645,30.742 232.324,20.695C228.66,13.566 218.832,12.465 210.945,13.937C206.633,14.742 202.266,16.027 197.926,16.676C199.344,17.723 200.535,19.039 201.387,20.695Z" style="fill:rgb(255,160,0);fill-rule:nonzero;"/>
    </g>
    <g transform="matrix(0.0988347,0,0,0.0988347,-2.26196,-0.175213)">
        <path d="M475.16,120.097C471.621,119.355 461.461,122.101 449.671,126.09C455.722,138.879 457.906,167.66 454.351,170.074C446.617,175.304 441.418,182.57 434.57,194.703L465.507,194.703C472.355,182.57 477.554,175.308 485.289,170.074C489.765,167.035 485.144,122.191 475.16,120.097Z" style="fill:rgb(255,160,0);fill-rule:nonzero;"/>
    </g>
    <g transform="matrix(0.0988347,0,0,0.0988347,-2.26196,-0.175213)">
        <path d="M465.507,194.703C461.496,201.832 456.929,210.652 450.949,221.726C441.359,239.496 442.523,269.968 431.23,278.331C419.941,286.706 407.379,266.734 407.523,258.679C407.925,237.527 384.043,237.703 390.023,223.765C393.117,216.574 364.293,215.554 358.117,220.683C354.082,224.039 356.664,244.621 369.582,259.417C370.383,260.335 370.508,261.652 369.972,262.746C367.386,268.074 363.965,272.996 359.879,277.292C358.859,278.359 357.226,278.507 356,277.691C347.609,272.113 333.937,276.054 330.562,285.773C329.199,289.687 329.273,294.148 326.941,297.566C324.703,300.863 320.742,302.449 317.105,304.058C296.305,313.238 278.453,328.925 266.707,348.347C265.707,350.003 264.727,351.702 263.664,353.351L99.446,353.351C98.188,347.417 97.137,341.136 95.66,332.499C92.422,313.527 89.176,294.558 85.926,275.593C82.235,261.757 25,253.539 25,224.289C25,215.8 45.977,203.644 50.989,194.703L465.507,194.703Z" style="fill:rgb(245,245,245);fill-rule:nonzero;"/>
    </g>
    <g transform="matrix(0.0988347,0,0,0.0988347,-2.26196,-0.175213)">
        <path d="M358.113,220.683C358.129,220.671 358.148,220.66 358.164,220.648C353.058,216.41 332.308,216.421 327.176,220.683C323.012,224.144 325.898,245.964 339.922,260.831C336.883,267.734 332.457,274.027 326.992,279.238C318.957,271.515 303.273,275.265 299.621,285.769C298.262,289.687 298.332,294.144 296.004,297.566C293.766,300.863 289.805,302.449 286.164,304.058C265.363,313.234 247.512,328.925 235.766,348.343C234.766,350.003 233.789,351.702 232.727,353.351L263.664,353.351C264.727,351.702 265.707,350.003 266.707,348.343C278.453,328.925 296.301,313.234 317.101,304.058C320.742,302.449 324.703,300.863 326.941,297.566C329.273,294.148 329.199,289.687 330.558,285.769C333.937,276.05 347.609,272.113 356,277.691C357.226,278.507 358.859,278.359 359.875,277.288C363.965,272.996 367.383,268.074 369.972,262.746C370.504,261.652 370.379,260.331 369.578,259.417C356.664,244.621 354.078,224.039 358.113,220.683Z" style="fill:rgb(235,227,212);fill-rule:nonzero;"/>
    </g>
    <g transform="matrix(0.0988347,0,0,0.0988347,-2.26196,-0.175213)">
        <path d="M434.57,194.703C430.558,201.832 425.992,210.652 420.011,221.726C413.691,233.433 412.039,250.652 408.422,263.433C411.472,272.531 421.793,285.335 431.23,278.335C442.523,269.968 441.359,239.496 450.949,221.726C456.929,210.652 461.496,201.832 465.507,194.703L434.57,194.703Z" style="fill:rgb(235,227,212);fill-rule:nonzero;"/>
    </g>
    <g transform="matrix(0.0988347,0,0,0.0988347,-2.26196,-0.175213)">
        <path d="M189.039,218.625C160.477,218.625 137.242,241.859 137.242,270.421C137.242,298.984 160.477,322.222 189.039,322.222C217.602,322.222 240.836,298.984 240.836,270.421C240.836,241.859 217.602,218.625 189.039,218.625ZM189.039,307.218C168.746,307.218 152.242,290.714 152.242,270.421C152.242,250.132 168.746,233.625 189.039,233.625C209.328,233.625 225.836,250.132 225.836,270.421C225.836,290.714 209.328,307.218 189.039,307.218Z" style="fill:rgb(3,169,244);fill-rule:nonzero;"/>
    </g>
    <g transform="matrix(0.0988347,0,0,0.0988347,-2.26196,-0.175213)">
        <path d="M209.484,262.921L207.145,262.921L208.797,261.269C211.727,258.339 211.727,253.589 208.797,250.664C205.871,247.734 201.121,247.734 198.192,250.664L196.539,252.316L196.539,249.976C196.539,245.835 193.18,242.476 189.039,242.476C184.899,242.476 181.539,245.835 181.539,249.976L181.539,252.316L179.883,250.664C176.957,247.734 172.207,247.734 169.278,250.664C166.348,253.593 166.348,258.339 169.278,261.269L170.93,262.921L168.594,262.921C164.453,262.921 161.094,266.281 161.094,270.421C161.094,274.562 164.453,277.921 168.594,277.921L170.93,277.921L169.278,279.574C166.348,282.503 166.348,287.253 169.278,290.183C170.742,291.648 172.66,292.378 174.582,292.378C176.5,292.378 178.418,291.648 179.883,290.183L181.539,288.527L181.539,290.867C181.539,295.007 184.895,298.367 189.039,298.367C193.18,298.367 196.539,295.007 196.539,290.867L196.539,288.527L198.192,290.183C199.656,291.644 201.574,292.378 203.496,292.378C205.414,292.378 207.332,291.648 208.797,290.183C211.727,287.253 211.727,282.503 208.797,279.574L207.145,277.921L209.484,277.921C213.625,277.921 216.984,274.562 216.984,270.421C216.984,266.281 213.625,262.921 209.484,262.921Z" style="fill:rgb(3,169,244);fill-rule:nonzero;"/>
    </g>
</svg>
