<?xml version="1.0" encoding="UTF-8" standalone="no"?>
<!DOCTYPE svg PUBLIC "-//W3C//DTD SVG 1.1//EN" "http://www.w3.org/Graphics/SVG/1.1/DTD/svg11.dtd">
<svg width="100%" height="100%" viewBox="0 0 209 209" version="1.1" xmlns="http://www.w3.org/2000/svg" xmlns:xlink="http://www.w3.org/1999/xlink" xml:space="preserve" xmlns:serif="http://www.serif.com/" style="fill-rule:evenodd;clip-rule:evenodd;stroke-linejoin:round;stroke-miterlimit:1.41421;">
    <g transform="matrix(0.406902,0,0,0.406902,-9.74897e-05,0)">
        <path d="M255.999,232.166C293.999,232.166 324.914,201.018 324.914,162.731C324.914,124.445 293.999,93.297 255.999,93.297C241.978,93.297 228.483,97.515 216.974,105.495C213.572,107.854 212.712,112.545 215.053,115.973C217.395,119.401 222.051,120.267 225.453,117.909C234.457,111.666 245.019,108.366 255.999,108.366C285.753,108.366 309.959,132.754 309.959,162.731C309.959,192.708 285.753,217.097 255.999,217.097C226.245,217.097 202.039,192.708 202.039,162.731C202.039,153.888 204.077,145.458 208.096,137.676C210.003,133.984 208.578,129.435 204.914,127.515C201.249,125.596 196.736,127.029 194.829,130.721C189.762,140.533 187.083,151.602 187.083,162.731C187.084,201.018 217.999,232.166 255.999,232.166Z" style="fill:rgb(34,148,210);fill-rule:nonzero;"/>
    </g>
    <g transform="matrix(0.406902,0,0,0.406902,-9.74897e-05,0)">
        <path d="M399.68,496.932L326.656,433.07L466.929,433.07L493.31,496.932L399.68,496.932ZM332.934,496.932L178.582,365.632C176.76,364.081 174.312,363.5 171.998,364.066C169.682,364.631 167.77,366.276 166.855,368.493L113.798,496.931L85.794,496.931L114.09,428.429C115.051,426.104 114.795,423.449 113.407,421.354C112.021,419.259 109.686,418 107.186,418L51.295,418L61.477,393.35L123.595,393.35C126.615,393.35 129.339,391.519 130.498,388.711L153.374,333.334L166.352,333.334C168.605,336.164 170.895,338.995 173.246,341.825C211.831,388.255 249.824,418.064 251.423,419.311C252.771,420.362 254.385,420.886 255.999,420.886C257.613,420.886 259.228,420.361 260.575,419.311C261.454,418.626 273.332,409.302 290.248,393.351L305.66,378.283C316.029,367.78 327.361,355.534 338.753,341.826C341.104,338.996 343.395,336.166 345.647,333.335L425.73,333.335L444.297,378.283L450.521,393.351L460.703,418.001L306.633,418.001C303.512,418.001 300.72,419.953 299.627,422.899C298.536,425.845 299.374,429.164 301.731,431.225L376.864,496.932L332.934,496.932ZM129.996,496.932L176.737,383.784L309.751,496.932L129.996,496.932ZM86.268,333.335L137.175,333.335L118.607,378.283L67.701,378.283L86.268,333.335ZM109.438,162.731C109.438,81.309 175.185,15.068 255.999,15.068C336.813,15.068 402.56,81.31 402.56,162.731C402.56,196.874 390.785,251.434 336.315,320.962C336.26,321.027 336.211,321.096 336.159,321.163C333.377,324.71 330.487,328.295 327.478,331.92C297.546,367.982 267.257,394.315 255.998,403.671C244.773,394.347 214.626,368.146 184.715,332.153C181.631,328.442 178.673,324.773 175.826,321.143C175.78,321.085 175.737,321.025 175.689,320.968C121.221,251.445 109.438,196.887 109.438,162.731ZM7.477,512L504.521,512C507.02,512 509.355,510.741 510.742,508.646C512.129,506.552 512.386,503.896 511.426,501.571L437.621,322.906C436.461,320.097 433.738,318.267 430.718,318.267L357.171,318.267C371.476,298.769 383.383,279.348 392.682,260.279C409.162,226.485 417.517,193.666 417.517,162.732C417.516,73.001 345.06,0 255.999,0C166.938,0 94.482,73.001 94.482,162.731C94.482,193.665 102.837,226.485 119.317,260.279C128.615,279.347 140.522,298.769 154.828,318.266L81.281,318.266C78.261,318.266 75.537,320.097 74.378,322.905L24.086,444.651C22.499,448.493 24.303,452.903 28.116,454.501C29.056,454.895 30.028,455.082 30.986,455.082C33.916,455.082 36.697,453.336 37.892,450.441L45.068,433.069L95.974,433.069L69.594,496.931L18.689,496.931L26.336,478.418C27.923,474.576 26.119,470.166 22.306,468.568C18.491,466.967 14.115,468.787 12.529,472.628L0.574,501.571C-0.386,503.896 -0.13,506.552 1.257,508.646C2.643,510.741 4.977,512 7.477,512Z" style="fill:rgb(34,148,210);fill-rule:nonzero;"/>
    </g>
</svg>
