<?xml version="1.0" encoding="UTF-8" standalone="no"?>
<!DOCTYPE svg PUBLIC "-//W3C//DTD SVG 1.1//EN" "http://www.w3.org/Graphics/SVG/1.1/DTD/svg11.dtd">
<svg width="100%" height="100%" viewBox="0 0 11 16" version="1.1" xmlns="http://www.w3.org/2000/svg" xmlns:xlink="http://www.w3.org/1999/xlink" xml:space="preserve" xmlns:serif="http://www.serif.com/" style="fill-rule:evenodd;clip-rule:evenodd;stroke-linejoin:round;stroke-miterlimit:1.41421;">
    <g transform="matrix(0.0296613,0,0,0.0296613,0,0)">
        <path d="M185.426,278.719C133.985,278.719 92.135,236.868 92.135,185.426C92.135,133.985 133.986,92.134 185.426,92.134C236.867,92.134 278.718,133.985 278.718,185.426C278.718,236.868 236.867,278.719 185.426,278.719ZM185.426,0C83.181,0 0,83.182 0,185.426C0,312.314 165.939,498.593 173.004,506.461C179.64,513.852 191.225,513.84 197.849,506.461C204.914,498.593 370.853,312.314 370.853,185.426C370.852,83.182 287.67,0 185.426,0Z" style="fill:white;fill-rule:nonzero;"/>
    </g>
</svg>
