<?xml version="1.0" encoding="UTF-8" standalone="no"?>
<!DOCTYPE svg PUBLIC "-//W3C//DTD SVG 1.1//EN" "http://www.w3.org/Graphics/SVG/1.1/DTD/svg11.dtd">
<svg width="100%" height="100%" viewBox="0 0 35 36" version="1.1" xmlns="http://www.w3.org/2000/svg" xmlns:xlink="http://www.w3.org/1999/xlink" xml:space="preserve" xmlns:serif="http://www.serif.com/" style="fill-rule:evenodd;clip-rule:evenodd;stroke-linejoin:round;stroke-miterlimit:1.41421;">
    <g transform="matrix(0.091042,0,0,0.091042,0,-0.0502554)">
        <clipPath id="_clip1">
            <rect x="0" y="0" width="385" height="386"/>
        </clipPath>
        <g clip-path="url(#_clip1)">
            <path d="M292.277,254.872C279.719,242.474 264.039,242.474 251.559,254.872C242.039,264.314 232.52,273.751 223.16,283.353C220.598,285.993 218.438,286.552 215.32,284.79C209.16,281.431 202.598,278.712 196.68,275.032C169.078,257.673 145.957,235.353 125.48,210.231C115.32,197.751 106.277,184.392 99.957,169.353C98.68,166.314 98.918,164.314 101.398,161.833C110.918,152.63 120.199,143.192 129.559,133.751C142.598,120.63 142.598,105.271 129.479,92.071C122.039,84.552 114.598,77.192 107.16,69.673C99.48,61.993 91.879,54.231 84.117,46.63C71.559,34.392 55.879,34.392 43.398,46.712C33.797,56.153 24.598,65.833 14.84,75.11C5.797,83.673 1.238,94.153 0.277,106.392C-1.242,126.314 3.637,145.11 10.52,163.431C24.598,201.353 46.039,235.032 72.039,265.911C107.16,307.673 149.078,340.712 198.117,364.552C220.199,375.271 243.078,383.513 267.957,384.872C285.078,385.833 299.957,381.513 311.879,368.153C320.039,359.032 329.238,350.712 337.879,341.993C350.68,329.032 350.758,313.353 338.039,300.552C322.84,285.271 307.559,270.071 292.277,254.872Z" style="fill:white;fill-rule:nonzero;"/>
            <path d="M277,191.11L306.52,186.071C301.879,158.95 289.078,134.392 269.637,114.872C249.078,94.314 223.078,81.353 194.438,77.353L190.277,107.032C212.438,110.153 232.598,120.153 248.52,136.071C263.559,151.11 273.398,170.153 277,191.11Z" style="fill:white;fill-rule:nonzero;"/>
            <path d="M323.16,62.79C289.078,28.712 245.957,7.192 198.359,0.552L194.199,30.231C235.32,35.993 272.598,54.63 302.039,83.993C329.957,111.911 348.277,147.192 354.918,185.993L384.438,180.95C376.68,135.993 355.48,95.192 323.16,62.79Z" style="fill:white;fill-rule:nonzero;"/>
        </g>
    </g>
</svg>
