<?xml version="1.0" encoding="UTF-8" standalone="no"?>
<!DOCTYPE svg PUBLIC "-//W3C//DTD SVG 1.1//EN" "http://www.w3.org/Graphics/SVG/1.1/DTD/svg11.dtd">
<svg width="100%" height="100%" viewBox="0 0 20 20" version="1.1" xmlns="http://www.w3.org/2000/svg" xmlns:xlink="http://www.w3.org/1999/xlink" xml:space="preserve" xmlns:serif="http://www.serif.com/" style="fill-rule:evenodd;clip-rule:evenodd;stroke-linejoin:round;stroke-miterlimit:1.41421;">
    <g transform="matrix(0.0961264,0,0,0.0961264,0,-0.0720948)">
        <path d="M195.348,172.434L151.844,128.93C151.613,128.7 151.344,128.539 151.102,128.325C159.66,115.34 164.656,99.793 164.656,83.079C164.656,37.61 127.797,0.75 82.328,0.75C36.859,0.75 0,37.61 0,83.079C0,128.547 36.859,165.407 82.328,165.407C99.043,165.407 114.586,160.411 127.57,151.852C127.785,152.094 127.945,152.364 128.179,152.594L171.684,196.098C178.219,202.633 188.812,202.633 195.348,196.098C201.883,189.563 201.883,178.969 195.348,172.434ZM82.328,136.868C52.621,136.868 28.539,112.786 28.539,83.079C28.539,53.371 52.621,29.289 82.328,29.289C112.035,29.289 136.117,53.371 136.117,83.079C136.117,112.786 112.035,136.868 82.328,136.868Z" style="fill:rgb(200,200,200);"/>
    </g>
</svg>
