<?xml version="1.0" encoding="UTF-8" standalone="no"?>
<!DOCTYPE svg PUBLIC "-//W3C//DTD SVG 1.1//EN" "http://www.w3.org/Graphics/SVG/1.1/DTD/svg11.dtd">
<svg width="100%" height="100%" viewBox="0 0 209 184" version="1.1" xmlns="http://www.w3.org/2000/svg" xmlns:xlink="http://www.w3.org/1999/xlink" xml:space="preserve" xmlns:serif="http://www.serif.com/" style="fill-rule:evenodd;clip-rule:evenodd;stroke-linejoin:round;stroke-miterlimit:1.41421;">
    <g transform="matrix(0.406902,0,0,0.406902,0,-0.110269)">
        <path d="M85.637,52.437C104.094,52.437 119.109,67.453 119.109,85.908C119.109,104.364 104.093,119.379 85.637,119.379C67.181,119.379 52.164,104.365 52.164,85.908C52.164,67.452 67.18,52.437 85.637,52.437ZM37.114,85.908C37.114,112.664 58.881,134.43 85.636,134.43C112.392,134.43 134.159,112.663 134.159,85.908C134.159,59.154 112.392,37.387 85.636,37.387C58.882,37.387 37.114,59.154 37.114,85.908Z" style="fill:rgb(34,148,210);fill-rule:nonzero;"/>
        <path d="M93.162,22.934L93.162,7.797C93.162,3.641 89.794,0.271 85.637,0.271C81.48,0.271 78.111,3.641 78.111,7.797L78.111,22.934C78.111,27.09 81.48,30.46 85.637,30.46C89.794,30.46 93.162,27.09 93.162,22.934Z" style="fill:rgb(34,148,210);fill-rule:nonzero;"/>
        <path d="M135.549,25.354L124.845,36.057C121.907,38.996 121.907,43.761 124.845,46.699C126.315,48.169 128.241,48.903 130.167,48.903C132.093,48.903 134.019,48.169 135.489,46.7L146.193,35.996C149.132,33.057 149.132,28.292 146.193,25.354C143.253,22.416 138.489,22.415 135.549,25.354Z" style="fill:rgb(34,148,210);fill-rule:nonzero;"/>
        <path d="M163.749,93.434C167.906,93.434 171.274,90.064 171.274,85.908C171.274,81.753 167.906,78.383 163.749,78.383L148.612,78.383C144.455,78.383 141.087,81.753 141.087,85.908C141.087,90.064 144.455,93.434 148.612,93.434L163.749,93.434Z" style="fill:rgb(34,148,210);fill-rule:nonzero;"/>
        <path d="M124.845,125.117C121.907,128.056 121.907,132.821 124.845,135.759L135.549,146.463C137.019,147.932 138.946,148.667 140.871,148.667C142.797,148.667 144.723,147.933 146.193,146.463C149.132,143.524 149.132,138.759 146.193,135.82L135.489,125.117C132.548,122.179 127.784,122.179 124.845,125.117Z" style="fill:rgb(34,148,210);fill-rule:nonzero;"/>
        <path d="M78.111,148.883L78.111,164.021C78.111,168.177 81.48,171.546 85.637,171.546C89.794,171.546 93.162,168.177 93.162,164.021L93.162,148.883C93.162,144.727 89.794,141.358 85.637,141.358C81.48,141.358 78.111,144.727 78.111,148.883Z" style="fill:rgb(34,148,210);fill-rule:nonzero;"/>
        <path d="M25.082,146.463C26.552,147.932 28.477,148.667 30.403,148.667C32.329,148.667 34.255,147.933 35.725,146.463L46.429,135.759C49.368,132.82 49.368,128.055 46.429,125.117C43.49,122.179 38.726,122.179 35.786,125.117L25.083,135.82C22.143,138.759 22.143,143.524 25.082,146.463Z" style="fill:rgb(34,148,210);fill-rule:nonzero;"/>
        <path d="M7.525,93.434L22.662,93.434C26.818,93.434 30.187,90.064 30.187,85.908C30.187,81.753 26.818,78.383 22.662,78.383L7.525,78.383C3.368,78.383 0,81.753 0,85.908C0,90.064 3.368,93.434 7.525,93.434Z" style="fill:rgb(34,148,210);fill-rule:nonzero;"/>
        <path d="M35.724,25.354C32.784,22.415 28.02,22.415 25.082,25.354C22.143,28.292 22.143,33.057 25.082,35.996L35.785,46.7C37.255,48.169 39.182,48.903 41.107,48.903C43.033,48.903 44.959,48.169 46.429,46.699C49.368,43.76 49.368,38.995 46.429,36.057L35.724,25.354Z" style="fill:rgb(34,148,210);fill-rule:nonzero;"/>
        <path d="M356.029,208.315L299.576,349.956C296.087,349.654 292.574,349.396 289.041,349.168C285.136,348.9 281.224,348.704 277.312,348.544L336.332,200.465C339.904,201.488 343.42,202.704 346.864,204.098C347.422,204.325 356.045,208.275 356.029,208.315ZM302.325,181.54C302.406,181.37 302.488,181.201 302.569,181.032C309.579,166.358 317.756,152.174 327.295,138.992C329.627,135.77 328.959,130.907 325.611,128.484C322.336,126.113 317.467,126.899 315.102,130.168C307.443,140.752 300.638,151.952 294.531,163.497C292.325,167.669 290.084,171.891 288.192,176.218C288.159,176.288 288.124,176.357 288.091,176.427C276.595,163.987 262.065,154.088 245.471,147.475C230.874,141.657 215.682,138.784 200.736,138.941C210.782,127.642 227.287,111.148 248.771,96.878C270.073,82.728 292.061,73.491 314.121,69.424C335.463,65.49 357,66.413 378.37,72.154C378.284,72.202 378.193,72.254 378.106,72.301C366.546,78.646 355.827,86.475 346.094,95.364C342.298,98.831 338.595,102.394 335.047,106.114C332.179,109.122 332.292,113.886 335.3,116.753C338.308,119.621 343.071,119.509 345.939,116.501C355.586,106.383 366.477,97.13 378.367,89.649C383.848,86.2 389.567,83.084 395.54,80.572C397.109,84.131 399.15,89.399 401.066,96.3C410.141,128.988 407.688,164.265 399.734,196.908C398.023,203.928 396.045,210.887 393.804,217.755C393.781,217.826 393.756,217.899 393.733,217.971C383.492,207.136 370.917,198.291 356.68,191.923C356.486,191.836 356.29,191.75 356.095,191.663C339.26,184.233 320.73,180.523 302.325,181.54ZM390.087,237.052C392.006,239.661 394.965,241.138 398.229,240.344C416.035,237.115 434.919,239.184 452.857,246.333C470.929,253.536 486.147,265.14 496.865,279.89C498.302,281.867 500.58,282.992 502.953,282.992C503.555,282.992 504.163,282.919 504.765,282.77C507.739,282.032 509.969,279.565 510.403,276.532C510.687,274.541 517.201,227.171 501.679,175.567C500.483,171.586 496.277,169.332 492.306,170.528C488.326,171.725 486.07,175.922 487.268,179.901C496.328,210.025 497.317,239.152 496.761,256.92C486.021,246.526 473.022,238.168 458.428,232.352C441.839,225.74 424.482,222.929 407.585,224.052C407.713,223.663 407.829,223.283 407.955,222.896C413.835,204.932 418.221,186.419 420.377,167.626C422.35,150.429 422.534,133.058 420.369,115.869C419.115,105.915 416.98,96.071 413.919,86.515C413.897,86.445 413.875,86.371 413.852,86.303C440.854,100.931 461.61,122.488 475.698,150.587C477.561,154.302 482.083,155.803 485.797,153.941C489.513,152.079 491.014,147.557 489.151,143.841C470.478,106.595 441.178,79.805 402.04,64.204C348.212,42.753 292.188,49.808 240.034,84.61C201.103,110.587 178.306,142.449 177.353,143.792C175.582,146.292 175.505,149.617 177.157,152.196C178.807,154.776 181.853,156.099 184.871,155.538C202.798,152.205 221.825,154.25 239.898,161.453C257.708,168.552 272.747,179.924 283.439,194.371C285.519,197.181 288.553,198.909 292.114,197.85C301.671,196.157 311.532,195.988 321.388,197.306L261.265,348.161C259.747,348.148 258.236,348.121 256.713,348.121C222.029,348.121 188.882,351.575 158.193,358.39C154.137,359.291 151.577,363.311 152.479,367.368C153.38,371.425 157.393,373.986 161.456,373.084C190.658,366.6 223.598,363.172 256.713,363.172C272.409,363.172 288.116,363.919 303.735,365.47C303.791,365.475 303.846,365.474 303.903,365.478C332.95,368.358 360.172,373.901 384.202,381.949C412.888,391.556 435.035,404.216 448.033,418.247C441.475,420.284 435.131,423.304 429.215,427.316C410.309,440.137 385.878,440.137 366.973,427.316C342.934,411.014 311.87,411.015 287.834,427.316C268.928,440.137 244.497,440.137 225.592,427.316C201.555,411.014 170.49,411.015 146.453,427.316C127.548,440.137 103.117,440.137 84.211,427.316C78.295,423.304 71.952,420.284 65.394,418.247C78.374,404.236 100.482,391.59 129.11,381.988C133.051,380.667 135.174,376.402 133.853,372.46C132.531,368.52 128.268,366.396 124.326,367.719C88.364,379.779 62.257,396.134 48.412,415.204C33.394,414.392 18.188,418.422 5.072,427.316C1.632,429.649 0.735,434.328 3.068,437.768C5.4,441.208 10.076,442.106 13.52,439.773C24.69,432.198 37.79,429.101 50.539,430.478C50.997,430.577 51.459,430.639 51.923,430.65C60.271,431.766 68.433,434.801 75.763,439.773C99.799,456.074 130.863,456.076 154.902,439.773C173.81,426.951 198.241,426.952 217.145,439.773C241.181,456.074 272.244,456.076 296.283,439.773C315.189,426.951 339.621,426.952 358.526,439.773C370.545,447.924 384.32,452 398.095,452C411.87,452 425.646,447.924 437.665,439.773C444.978,434.813 453.121,431.78 461.45,430.658C461.942,430.649 462.434,430.582 462.922,430.475C475.66,429.107 488.747,432.204 499.908,439.773C503.348,442.106 508.028,441.209 510.36,437.768C512.692,434.329 511.795,429.649 508.356,427.316C495.24,418.42 480.032,414.391 465.016,415.204C451.154,396.111 425.007,379.743 388.984,367.678C366.623,360.19 341.668,354.785 315.134,351.576L369.049,216.305C377.184,222.18 384.284,229.158 390.087,237.052Z" style="fill:rgb(34,148,210);fill-rule:nonzero;"/>
    </g>
</svg>
